<svg width="72" height="65" viewBox="0 0 72 65" fill="none" xmlns="http://www.w3.org/2000/svg">
<path d="M57.7261 40.6282C58.0408 40.9429 58.1981 41.3625 58.1981 41.7821C58.1981 42.2541 58.0408 42.7261 57.7261 43.0933V47.7086L58.0408 47.3415L57.7261 47.7611V53.6352L59.0373 54.8415L58.9848 54.894C58.6177 55.2611 58.2506 55.5758 57.7786 55.838V53.5828L59.0897 54.7891C60.1911 53.6352 60.6632 52.1142 60.6107 50.6457C60.5583 49.2821 60.0338 47.9709 59.0897 46.9219C59.6142 46.6597 60.0863 46.2926 60.5058 45.873L60.5583 45.8205L59.1946 44.5618L59.1422 44.5093L60.5583 45.8205C61.6597 44.6667 62.1317 43.1457 62.0793 41.6772C62.0268 40.2086 61.3974 38.7401 60.2436 37.6387L57.6737 35.2786V40.6282H57.7261ZM41.2051 19.9639C40.4184 19.2296 39.1597 19.2821 38.4254 20.0688C37.6911 20.8555 37.7436 22.1142 38.5303 22.8485C40.2086 24.4219 43.0408 27.0443 45.7156 29.5093C47.8135 31.4499 49.859 33.338 51.2226 34.5968L57.6212 40.5233C57.6737 40.5758 57.7261 40.6282 57.7261 40.6282V35.2786L53.8974 31.7121C52.4289 30.3485 50.4359 28.5128 48.3904 26.6247C45.6107 24.0548 42.7786 21.4324 41.2051 19.9639ZM57.7261 43.0933V47.7086L57.4114 48.0758L57.4639 48.0233L57.7261 47.7611V53.6352L57.6737 53.5828L57.6212 53.5303L57.7786 53.6352V55.8905C56.9394 56.3625 55.9953 56.6247 55.0513 56.6772C54.4744 56.6772 53.8974 56.6247 53.3205 56.4674C53.0583 57.3065 52.6387 58.0408 52.0093 58.7226C50.9079 59.8765 49.4394 60.5058 47.9709 60.5583C46.6072 60.6107 45.296 60.1912 44.1422 59.2995C43.88 59.8765 43.5128 60.4009 43.0932 60.873L41.6772 59.5618L43.0932 60.9254L43.0408 60.9779C41.9918 62.0268 40.5758 62.6037 39.1597 62.6562C37.6911 62.7086 36.1702 62.1842 35.0163 61.1352L36.3275 59.7191L34.9639 61.1352C34.9114 61.0828 34.859 61.0303 34.8065 60.9779C33.3904 59.824 31.5023 58.2506 29.4044 56.4674C20.7506 49.3345 8.5303 39.1597 8.94988 30.6107L1.0303 23.2156L2.34149 21.7995L0.977855 23.2156C0.191142 22.4814 0.138695 21.2226 0.872961 20.4359C0.925408 20.3835 0.925407 20.3835 0.977855 20.331L18.7051 1.345L20.1212 2.65619L18.7051 1.29255C19.4394 0.505839 20.6981 0.453392 21.4848 1.18766C21.5373 1.24011 21.5373 1.2401 21.5897 1.29255C21.9044 1.60724 22.5338 2.18416 24.6317 4.17717C27.2541 6.6422 27.2541 6.58976 27.6737 7.00934C28.4604 7.7436 28.5128 9.00234 27.7786 9.78906C27.0443 10.5758 25.7855 10.6282 24.9988 9.89395C22.5862 7.63871 22.5862 7.58626 22.0093 7.06178C21.7995 6.85199 21.5373 6.58976 20.2786 5.43591L5.12121 21.6947L12.2016 28.303C12.7261 28.7226 13.0408 29.4569 12.8834 30.1912L10.9429 29.824L12.8834 30.1912C11.6772 36.6947 23.5827 46.6072 31.817 53.4779C33.9674 55.2611 35.8555 56.8345 37.324 58.1981C37.3765 58.2506 37.4289 58.3031 37.4814 58.3031C37.8485 58.6702 38.3205 58.8275 38.7925 58.7751C39.2121 58.7751 39.6841 58.6177 39.9988 58.3031L40.0513 58.2506V58.1981L40.1037 58.1457C40.4184 57.7786 40.5758 57.3065 40.5758 56.8345C40.5758 56.3625 40.366 55.9429 40.0513 55.6282L39.9988 55.5758C39.2646 54.8415 39.2121 53.6352 39.9464 52.8485C40.6807 52.0618 41.9394 52.0093 42.7261 52.7436L42.7786 52.7961L42.831 52.8485L46.3974 56.2051C46.7646 56.5723 47.2366 56.7296 47.7611 56.7296C48.2331 56.7296 48.7051 56.5198 49.0723 56.1527C49.4394 55.7856 49.5967 55.3135 49.5967 54.7891C49.5967 54.317 49.3869 53.845 49.0198 53.4779L51.6946 50.5933L53.5303 52.324C53.8974 52.6912 54.3695 52.8485 54.8939 52.8485C55.366 52.8485 55.7855 52.6387 56.1002 52.324V52.2716L56.1527 52.2191C56.4674 51.852 56.6247 51.38 56.6247 50.9079C56.6247 50.4359 56.4149 50.0163 56.1002 49.7016L56.0478 49.6492L52.4289 46.2926L53.6876 44.9289L52.4289 46.2926L52.3765 46.2401V46.1877V46.1352V46.0828V46.0303V45.9779V45.9254V45.873V45.8205V45.7681V45.7156V45.6632C52.3765 45.6107 52.3765 45.6107 52.3765 45.5583V45.5058C52.3765 45.4534 52.3765 45.4534 52.3765 45.4009C52.3765 45.3485 52.3765 45.3485 52.3765 45.2961C52.3765 45.2436 52.3765 45.2436 52.3765 45.1912V45.1387V45.0863V45.0338V44.9814V44.9289V44.8765V44.824V44.7716V44.7191V44.6667V44.6142V44.5618V44.5093V44.4569V44.4044V44.352V44.2995V44.2471V44.1947V44.1422V44.0898C52.4814 43.88 52.5862 43.7226 52.7436 43.5653C52.7436 43.5653 52.7436 43.5653 52.796 43.5128H52.8485H52.9009H52.9534H53.0058H53.0583H53.1107H53.1632H53.2156H53.2681C53.3205 43.5128 53.373 43.4604 53.4254 43.4604H53.4779C53.5303 43.4604 53.5303 43.4604 53.5828 43.4604C53.6352 43.4604 53.6876 43.4604 53.7401 43.4079C53.7925 43.4079 53.7925 43.4079 53.845 43.4079C53.8974 43.4079 53.8974 43.4079 53.9499 43.4079H54.0023H54.0548H54.1072H54.1597H54.2121H54.2646H54.317H54.3695H54.4219H54.4744H54.5268H54.5793H54.6317H54.6841H54.7366H54.789H54.8415H54.8939H54.9464C54.9988 43.4604 55.0513 43.4604 55.1037 43.5128H55.1562L55.2086 43.5653L55.2611 43.6177H55.3135L55.366 43.6702C55.7331 43.9849 56.2051 44.1422 56.6772 44.1422C57.1492 44.1422 57.5688 43.9324 57.8835 43.6177L57.7261 43.0933Z" fill="#9043C3"/>
<path d="M41.2572 40.8904C40.4705 40.1562 39.2117 40.2086 38.4775 40.9953C37.7432 41.782 37.7956 43.0408 38.5823 43.775L49.8586 54.317C50.6453 55.0512 51.904 54.9988 52.6383 54.2121C53.3726 53.4254 53.3201 52.1666 52.5334 51.4324L41.2572 40.8904Z" fill="#9043C3"/>
<path d="M31.0306 41.782C30.2439 41.0478 28.9852 41.1002 28.2509 41.8869C27.5166 42.6736 27.5691 43.9324 28.3558 44.6666L42.674 58.0408C43.4607 58.775 44.7194 58.7226 45.4537 57.9359C46.1879 57.1491 46.1355 55.8904 45.3488 55.1561L31.0306 41.782Z" fill="#9043C3"/>
<path d="M43.8802 32.866C43.0935 32.1317 41.8348 32.1842 41.1005 32.9709C40.3662 33.7576 40.4187 35.0164 41.2054 35.7506L55.104 48.7052C55.8907 49.4394 57.1494 49.387 57.8837 48.6003C58.618 47.8136 58.5655 46.5548 57.7788 45.8205L43.8802 32.866Z" fill="#9043C3"/>
<path d="M24.6316 61.0303C24.8414 60.8729 25.1036 60.7156 25.3134 60.5582C25.5756 61.1352 25.9428 61.6596 26.3624 62.1841L27.7784 60.8729L26.3624 62.2366C26.4148 62.289 26.4673 62.3415 26.5197 62.3939C27.5686 63.4429 28.9847 64.0198 30.3484 64.0722L30.4008 62.1317L30.3484 64.0722C30.4008 64.0722 30.5057 64.0722 30.5582 64.0722C31.9742 64.0722 33.3903 63.5478 34.4917 62.5513L33.1805 61.1352L34.5442 62.5513C34.5966 62.4988 34.6491 62.4464 34.7015 62.3939C34.9113 62.1841 35.1735 61.9743 35.4882 61.7121C35.7505 61.5023 36.1176 61.1876 36.5896 60.768C37.4288 60.0862 37.5337 58.8275 36.8519 57.9883C36.17 57.1492 34.9113 57.0443 34.0721 57.7261C33.7575 57.9883 33.3379 58.303 32.9183 58.7226C32.6561 58.9848 32.3414 59.2471 32.0267 59.5093C31.9742 59.5617 31.9218 59.6142 31.8693 59.6142C31.5022 59.9289 31.0826 60.0862 30.6631 60.0862C30.6106 60.0862 30.6106 60.0862 30.5582 60.0862C30.1386 60.0862 29.6666 59.9289 29.3519 59.6142C29.2994 59.5617 29.2994 59.5617 29.247 59.5093C28.9847 59.2471 28.8274 58.9324 28.7749 58.6177C28.7225 58.2505 28.7225 57.9359 28.8274 57.5687C28.8798 57.4114 28.9323 57.254 28.9847 57.1492C29.4043 55.9953 29.6141 55.4708 28.5127 54.5792C27.0966 53.3729 26.5721 53.8974 25.6281 54.8939C25.5756 54.9464 25.4707 55.0513 25.261 55.2086L24.5791 55.838V59.1946L24.8938 59.5617L24.5791 59.1946V61.0303H24.6316ZM56.7295 37.1666C56.1001 38.0582 56.2575 39.2645 57.1491 39.8939C58.0407 40.5233 59.247 40.3659 59.8764 39.4743C61.0826 37.8485 62.0267 36.1701 62.6561 34.5443C63.1805 33.1806 63.3903 31.8694 63.3903 30.5582L71.3099 23.1631L69.9987 21.7471L71.3624 23.1631C72.1491 22.4289 72.2015 21.1701 71.4673 20.3834C71.4148 20.331 71.4148 20.331 71.3624 20.2785L53.6351 1.29251L52.219 2.6037L53.6351 1.24006C52.9008 0.453349 51.6421 0.400902 50.8554 1.13517C50.8029 1.18762 50.8029 1.18761 50.7505 1.24006C50.4358 1.55475 49.8064 2.13167 47.7085 4.12468C45.0861 6.58971 45.0861 6.53727 44.6666 6.95685C43.8798 7.69111 43.8274 8.94985 44.5617 9.73657C45.2959 10.5233 46.5547 10.5757 47.3414 9.84146C49.754 7.58622 49.754 7.53377 50.3309 7.00929C50.5407 6.7995 50.8029 6.53727 52.0617 5.38342L67.1666 21.5897L60.0861 28.1981C59.5617 28.6177 59.247 29.352 59.4043 30.0862L61.3449 29.7191L59.4043 30.0862C59.5617 30.9778 59.4043 31.9743 58.9847 33.0757C58.5652 34.4394 57.7784 35.7506 56.7295 37.1666ZM14.247 39.4219C15.0337 38.6876 15.0337 37.4289 14.2994 36.6422C13.5652 35.8554 12.3064 35.8554 11.5197 36.5897L9.10711 38.9499C7.95326 40.0513 7.37634 41.5198 7.32389 42.9883C7.27145 44.4568 7.79592 45.9254 8.84487 47.0792C9.3169 47.5513 9.78893 47.9708 10.3659 48.2331C9.4218 49.282 8.89732 50.5932 8.84487 51.9568C8.79242 53.4254 9.3169 54.9464 10.3659 56.1002L11.7819 54.789L11.7295 54.8415L10.3659 56.1002L10.4183 56.1526H10.4707L10.5232 56.2051C11.5721 57.3065 12.9882 57.8834 14.4568 57.9359C15.0337 57.9359 15.6106 57.8834 16.1875 57.7261C16.4498 58.5652 16.8693 59.2995 17.4987 59.9813L18.9148 58.6701L18.8624 58.7226L17.4987 59.9813L17.5512 60.0338H17.6036L17.6561 60.0862C18.7575 61.1876 20.1735 61.7645 21.5896 61.7645C22.691 61.817 23.74 61.5547 24.7365 60.9778V59.1422L24.4218 58.775L24.4742 58.8275L24.7365 59.0897V55.7331L23.1631 57.2016L23.1106 57.2541C22.7435 57.5687 22.2714 57.7261 21.7994 57.7261C21.3798 57.7261 20.9078 57.5163 20.5931 57.2016L20.5407 57.1492C20.226 56.8345 20.1211 56.4149 20.0687 55.9953C20.0687 55.5233 20.226 55.1037 20.4882 54.7366C20.4882 54.7366 20.698 54.5268 20.9078 54.317C21.0652 54.1596 21.2749 53.9499 21.4323 53.7925L21.5896 53.6352L21.6421 53.5827C22.4288 52.796 22.4288 51.5897 21.6421 50.803C20.8554 50.0163 19.6491 50.0163 18.8624 50.803C18.8099 50.8554 18.705 50.9603 18.6001 51.0652L17.761 51.9044L17.7085 51.9568L16.24 53.3205L16.1875 53.3729C15.8204 53.6876 15.3484 53.845 14.8763 53.845C14.4043 53.845 13.9847 53.6352 13.67 53.3205L13.6176 53.268C13.3029 52.9009 13.1456 52.4289 13.1456 51.9568C13.1456 51.4848 13.3554 51.0128 13.7225 50.6457L17.3938 47.2366L14.719 44.352C14.3519 44.7191 13.8798 44.8764 13.3554 44.8764C12.8833 44.8764 12.4113 44.6666 12.0442 44.2995C11.677 43.9324 11.5197 43.4603 11.5721 42.9883C11.5721 42.5163 11.7819 41.9918 12.2015 41.6247L14.247 39.4219Z" fill="#9043C3"/>
<path d="M40.4713 20.7506C41.258 21.5373 42.4643 21.5373 43.251 20.7506C44.0377 19.9639 44.0377 18.7576 43.251 17.9709C41.8874 16.6073 39.1077 15.5583 36.2755 15.2436C33.7056 14.9289 30.9783 15.1912 29.1951 16.2926C27.6216 17.2891 26.1531 17.7087 24.8419 17.8136C23.4783 17.9184 22.4818 17.6038 22.0622 17.2366C22.0622 17.1842 22.0622 17.1317 22.1147 16.9744C22.272 16.5024 22.6391 15.9254 23.3734 15.2436C23.6356 14.9814 23.9503 14.7191 24.3175 14.4569C25.5762 13.4604 26.6251 12.7261 27.7265 12.2541C28.8279 11.7821 30.0867 11.4674 31.9748 11.3625C33.1811 11.2576 34.5447 11.415 35.9084 11.5723C39.0552 11.887 42.5168 12.2017 46.3979 10.6807C47.3944 10.2611 47.8664 9.15971 47.4993 8.11076C47.0797 7.11425 45.9783 6.64222 44.9293 7.00936C41.9923 8.21565 39.0028 7.90096 36.2755 7.63873C34.7021 7.48138 33.1811 7.32404 31.7126 7.42894C29.3524 7.58628 27.6741 8.00586 26.1531 8.63523C24.6846 9.31705 23.4783 10.1562 21.9573 11.3101C21.4853 11.6772 21.0657 12.0443 20.6986 12.359C19.4398 13.5653 18.7056 14.7716 18.3909 15.873C17.9713 17.2891 18.2335 18.5478 19.0203 19.5968C19.1251 19.7017 19.23 19.8066 19.2825 19.9115C20.3839 21.0653 22.5342 21.852 25.1042 21.6947C26.9923 21.5898 29.1426 20.9604 31.293 19.5968C32.237 19.0198 33.9678 18.915 35.751 19.1247C37.7965 19.387 39.737 20.0163 40.4713 20.7506Z" fill="#9043C3"/>
<path d="M30.2959 55.7855C31.0826 54.9988 31.0826 53.7925 30.2959 53.0058C29.5092 52.2191 28.3029 52.2191 27.5162 53.0058L24.3693 56.1002C23.5826 56.8869 23.5826 58.0932 24.3693 58.8799C25.156 59.6666 26.3623 59.6666 27.149 58.8799L30.2959 55.7855Z" fill="#9043C3"/>
<path d="M24.2647 50.8555C25.0514 50.0688 25.0514 48.8625 24.2647 48.0758C23.4779 47.289 22.2716 47.289 21.4849 48.0758L18.3381 51.1702C17.5514 51.9569 17.5514 53.1632 18.3381 53.9499C19.1248 54.7366 20.3311 54.7366 21.1178 53.9499L24.2647 50.8555Z" fill="#9043C3"/>
<path d="M18.967 45.6631C19.8062 44.9288 19.8586 43.7225 19.1768 42.8834C18.4425 42.0442 17.2362 41.9918 16.3971 42.6736L14.0369 44.719C13.1978 45.4533 13.1453 46.6596 13.8271 47.4988C14.5614 48.3379 15.7677 48.3904 16.6069 47.7085L18.967 45.6631Z" fill="#9043C3"/>
</svg>
